<svg xmlns="http://www.w3.org/2000/svg" version="1.1" xmlns:xlink="http://www.w3.org/1999/xlink" xmlns:svgjs="http://svgjs.dev/svgjs" width="1000" height="750" viewBox="0 0 1000 750"><rect width="1000" height="750" fill="#ffffff"></rect><g transform="matrix(0.834,0,0,0.834,82.49454545454546,298.0910309070494)"><svg viewBox="0 0 396 73" data-background-color="#ffffff" preserveAspectRatio="xMidYMid meet" height="184" width="1000" xmlns="http://www.w3.org/2000/svg" xmlns:xlink="http://www.w3.org/1999/xlink"><g id="tight-bounds" transform="matrix(1,0,0,1,0.2400000000000091,0.08608815416400262)"><svg viewBox="0 0 395.52 72.827823691672" height="72.827823691672" width="395.52"><g><svg viewBox="0 0 696.6980995354604 128.2843000588882" height="72.827823691672" width="395.52"><g><rect width="9.100442696282917" height="101.41761196261682" x="419.3431484195888" y="13.433344048135687" fill="#000000" opacity="1" stroke-width="0" stroke="transparent" fill-opacity="1" class="rect-r$-0" data-fill-palette-color="primary" rx="1%" id="r$-0" data-palette-color="#89939e"></rect></g><g transform="matrix(1,0,0,1,0,13.685626664958114)"><svg viewBox="0 0 395.52 100.91304672897196" height="100.91304672897196" width="395.52"><g id="textblocktransform"><svg viewBox="0 0 395.52 100.91304672897196" height="100.91304672897196" width="395.52" id="textblock"><g><svg viewBox="0 0 395.52 100.91304672897196" height="100.91304672897196" width="395.52"><g transform="matrix(1,0,0,1,0,0)"><svg width="395.52" viewBox="2.0999999999999996 -40.55 160.48000000000002 40.95" height="100.91304672897196" data-palette-color="#89939e"><g class="wordmark-text-0" data-fill-palette-color="primary" id="text-0"><path d="M7.9 0.4L7.9 0.4Q6.2 0.4 4.9-0.58 3.6-1.55 2.85-3.08 2.1-4.6 2.1-6.3L2.1-6.3Q2.1-9 3-10.85 3.9-12.7 5.48-13.98 7.05-15.25 9.13-16.2 11.2-17.15 13.5-18.05L13.5-18.05 13.5-20.1Q13.5-21.85 13.3-23 13.1-24.15 12.48-24.73 11.85-25.3 10.6-25.3L10.6-25.3Q9.5-25.3 8.83-24.8 8.15-24.3 7.85-23.38 7.55-22.45 7.55-21.2L7.55-21.2 7.55-19.75 2.25-19.95Q2.35-24.75 4.45-27.03 6.55-29.3 10.95-29.3L10.95-29.3Q15.25-29.3 17.05-26.95 18.85-24.6 18.85-20.15L18.85-20.15 18.85-6.95Q18.85-5.6 18.93-4.35 19-3.1 19.13-2.02 19.25-0.95 19.35 0L19.35 0 14.45 0Q14.3-0.8 14.08-2.02 13.85-3.25 13.75-4.25L13.75-4.25Q13.25-2.55 11.83-1.07 10.4 0.4 7.9 0.4ZM10-4.2L10-4.2Q10.8-4.2 11.5-4.65 12.2-5.1 12.75-5.68 13.3-6.25 13.5-6.6L13.5-6.6 13.5-14.8Q12.25-14.1 11.15-13.4 10.05-12.7 9.22-11.93 8.4-11.15 7.93-10.18 7.45-9.2 7.45-7.95L7.45-7.95Q7.45-6.2 8.1-5.2 8.75-4.2 10-4.2ZM29.35 0L24 0 24-28.9 29.35-28.9 29.35-26.05Q30.8-27.4 32.55-28.35 34.3-29.3 36.4-29.3L36.4-29.3Q38.15-29.3 39.07-28.4 40-27.5 40.37-26.15 40.75-24.8 40.75-23.4L40.75-23.4 40.75 0 35.4 0 35.4-21.85Q35.4-23.4 34.95-24.25 34.5-25.1 33.1-25.1L33.1-25.1Q32.2-25.1 31.22-24.58 30.25-24.05 29.35-23.3L29.35-23.3 29.35 0ZM51.4-0.05L46.05-0.05 46.05-40.55 51.4-40.55 51.4-16.4 59.2-28.9 64.8-28.9 58-17.6 64.59 0 59.25 0 53.85-14.8 51.4-11.1 51.4-0.05ZM73.09 0L67.74 0 67.74-28.9 73.09-28.9 73.09 0ZM73.09-33.2L67.74-33.2 67.74-38.8 73.09-38.8 73.09-33.2ZM86.54 0.4L86.54 0.4Q84.29 0.4 82.92-0.45 81.54-1.3 80.92-2.85 80.29-4.4 80.29-6.5L80.29-6.5 80.29-25.35 77.24-25.35 77.24-28.9 80.29-28.9 80.29-37.35 85.64-37.35 85.64-28.9 90.29-28.9 90.29-25.35 85.64-25.35 85.64-6.85Q85.64-5.15 86.19-4.42 86.74-3.7 88.29-3.7L88.29-3.7Q88.69-3.7 89.22-3.75 89.74-3.8 90.24-3.85L90.24-3.85 90.24 0.1Q89.24 0.25 88.39 0.33 87.54 0.4 86.54 0.4ZM99.34 0L93.99 0 93.99-5.95 99.34-5.95 99.34 0ZM110.34 0.4L110.34 0.4Q106.69 0.4 104.89-2.27 103.09-4.95 103.09-11.35L103.09-11.35 103.09-16.95Q103.09-20.25 103.64-23.08 104.19-25.9 105.71-27.6 107.24-29.3 110.19-29.3L110.19-29.3Q111.64-29.3 112.84-28.65 114.04-28 114.99-27.05L114.99-27.05 114.99-40.5 120.34-40.5 120.34 0 114.99 0 114.99-1.85Q114.04-0.85 112.91-0.23 111.79 0.4 110.34 0.4ZM111.69-3.8L111.69-3.8Q112.44-3.8 113.29-4.08 114.14-4.35 114.99-4.9L114.99-4.9 114.99-23.85Q114.29-24.35 113.44-24.73 112.59-25.1 111.59-25.1L111.59-25.1Q109.74-25.1 109.09-23.33 108.44-21.55 108.44-19.05L108.44-19.05 108.44-10.9Q108.44-8.9 108.66-7.28 108.89-5.65 109.59-4.73 110.29-3.8 111.69-3.8ZM133.73 0.4L133.73 0.4Q130.33 0.4 128.48-0.93 126.63-2.25 125.91-4.83 125.18-7.4 125.18-11.15L125.18-11.15 125.18-17.75Q125.18-21.6 125.93-24.15 126.68-26.7 128.56-28 130.43-29.3 133.73-29.3L133.73-29.3Q137.38-29.3 139.11-27.8 140.83-26.3 141.38-23.48 141.93-20.65 141.93-16.7L141.93-16.7 141.93-14.35 130.53-14.35 130.53-8.55Q130.53-6.8 130.86-5.7 131.18-4.6 131.91-4.08 132.63-3.55 133.78-3.55L133.78-3.55Q134.98-3.55 135.61-4.13 136.23-4.7 136.46-5.78 136.68-6.85 136.68-8.3L136.68-8.3 136.68-10.05 141.88-10.05 141.88-8.95Q141.88-4.6 140.03-2.1 138.18 0.4 133.73 0.4ZM130.53-18.8L130.53-17.25 136.68-17.25 136.68-19.85Q136.68-21.65 136.48-22.88 136.28-24.1 135.66-24.73 135.03-25.35 133.68-25.35L133.68-25.35Q132.38-25.35 131.71-24.75 131.03-24.15 130.78-22.73 130.53-21.3 130.53-18.8L130.53-18.8ZM157.08 0L150.53 0 144.83-28.9 150.23-28.9 153.78-5.65 157.38-28.9 162.58-28.9 157.08 0Z" fill="#000000" data-fill-palette-color="primary"></path></g></svg></g></svg></g></svg></g></svg></g><g transform="matrix(1,0,0,1,452.2667395354605,0)"><svg viewBox="0 0 244.43135999999998 128.2843000588882" height="128.2843000588882" width="244.43135999999998"><g><svg xmlns="http://www.w3.org/2000/svg" xmlns:xlink="http://www.w3.org/1999/xlink" version="1.1" x="0" y="0" viewBox="5 26.381999999999998 90.001 47.23499999999999" enable-background="new 0 0 100 100" xml:space="preserve" height="128.2843000588882" width="244.43135999999998" class="icon-icon-0" data-fill-palette-color="accent" id="icon-0"><path fill="none" d="M50.482 28.475c-0.03 0.03-0.071 0.048-0.106 0.072C50.411 28.522 50.452 28.505 50.482 28.475z"></path><path fill="none" d="M50.628 28.259c-0.021 0.052-0.06 0.093-0.093 0.138C50.568 28.352 50.606 28.311 50.628 28.259z"></path><path fill="none" d="M50.553 27.618c0.025 0.037 0.058 0.069 0.075 0.111C50.61 27.688 50.578 27.655 50.553 27.618z"></path><path fill="none" d="M50.266 28.621c-0.082 0.034-0.171 0.053-0.265 0.053C50.095 28.674 50.184 28.655 50.266 28.621z"></path><path fill="none" d="M50.001 28.674c-0.375 0-0.68-0.304-0.68-0.68s0.305-0.68 0.68-0.68c-0.376 0-0.681 0.304-0.681 0.68S49.625 28.674 50.001 28.674z"></path><path fill="none" d="M50.001 27.314c0.094 0 0.183 0.019 0.265 0.053C50.184 27.333 50.095 27.314 50.001 27.314z"></path><path fill="none" d="M50.376 27.442c0.036 0.024 0.076 0.041 0.106 0.071C50.452 27.483 50.412 27.466 50.376 27.442z"></path><path fill="none" d="M54.305 70.684c0.375 0 0.678 0.305 0.68 0.68C54.984 70.988 54.68 70.684 54.305 70.684z"></path><path d="M86.63 69.109c0.108-0.227 0.177-0.478 0.177-0.746V28.107c0-0.953-0.772-1.725-1.727-1.725H14.92c-0.953 0-1.724 0.772-1.724 1.725v40.256c0 0.269 0.066 0.52 0.176 0.746H5v2.783c0 0.953 0.773 1.725 1.726 1.725h86.549c0.953 0 1.726-0.771 1.726-1.725v-2.783H86.63zM50.001 27.314c0.094 0 0.183 0.019 0.265 0.053 0.042 0.018 0.074 0.049 0.11 0.075 0.036 0.024 0.076 0.041 0.106 0.071 0.03 0.03 0.047 0.07 0.071 0.105 0.025 0.037 0.058 0.069 0.075 0.111 0.034 0.081 0.054 0.171 0.054 0.265s-0.02 0.183-0.054 0.265c-0.021 0.052-0.06 0.093-0.093 0.138-0.02 0.025-0.031 0.056-0.053 0.078-0.03 0.03-0.071 0.048-0.106 0.072-0.037 0.025-0.069 0.057-0.11 0.074-0.082 0.034-0.171 0.053-0.265 0.053-0.376 0-0.681-0.304-0.681-0.68S49.625 27.314 50.001 27.314zM16.143 29.708h67.714v36.571H16.143V29.708zM54.305 72.046h-8.608c-0.375 0-0.68-0.305-0.68-0.683 0-0.375 0.305-0.68 0.68-0.68h8.608c0.375 0 0.68 0.305 0.68 0.68C54.984 71.741 54.68 72.046 54.305 72.046z" fill="#000000" data-fill-palette-color="accent"></path><polygon points="25.039,48.313 25.039,49.536 25.039,49.537 44.878,49.537 44.878,49.536 44.878,48.313 44.878,48.312   25.039,48.312 " fill="#000000" data-fill-palette-color="accent"></polygon><rect x="36.633" y="58.613" width="3.488" height="1.225" fill="#000000" data-fill-palette-color="accent"></rect><rect x="46.552" y="48.313" width="3.488" height="1.224" fill="#000000" data-fill-palette-color="accent"></rect><rect x="39.377" y="46.296" width="3.488" height="1.224" fill="#000000" data-fill-palette-color="accent"></rect><rect x="20.692" y="31.829" width="3.489" height="1.224" fill="#000000" data-fill-palette-color="accent"></rect><rect x="20.692" y="42.131" width="3.489" height="1.224" fill="#000000" data-fill-palette-color="accent"></rect><rect x="20.692" y="46.296" width="3.489" height="1.224" fill="#000000" data-fill-palette-color="accent"></rect><rect x="20.692" y="48.313" width="3.489" height="1.224" fill="#000000" data-fill-palette-color="accent"></rect><rect x="20.692" y="44.191" width="5.832" height="1.224" fill="#000000" data-fill-palette-color="accent"></rect><rect x="25.039" y="46.296" width="12.665" height="1.224" fill="#000000" data-fill-palette-color="accent"></rect><rect x="20.692" y="50.373" width="3.489" height="1.223" fill="#000000" data-fill-palette-color="accent"></rect><rect x="20.692" y="54.494" width="3.489" height="1.223" fill="#000000" data-fill-palette-color="accent"></rect><rect x="53.637" y="50.373" width="3.488" height="1.223" fill="#000000" data-fill-palette-color="accent"></rect><rect x="25.039" y="50.373" width="27.761" height="1.223" fill="#000000" data-fill-palette-color="accent"></rect><rect x="20.692" y="52.434" width="27.792" height="1.223" fill="#000000" data-fill-palette-color="accent"></rect><rect x="25.039" y="54.494" width="23.444" height="1.223" fill="#000000" data-fill-palette-color="accent"></rect><rect x="20.692" y="56.555" width="17.012" height="1.223" fill="#000000" data-fill-palette-color="accent"></rect><rect x="20.692" y="58.613" width="14.267" height="1.225" fill="#000000" data-fill-palette-color="accent"></rect><rect x="20.692" y="60.674" width="7.134" height="1.225" fill="#000000" data-fill-palette-color="accent"></rect><rect x="20.692" y="62.736" width="5.832" height="1.223" fill="#000000" data-fill-palette-color="accent"></rect><rect x="20.692" y="33.89" width="8.694" height="1.224" fill="#000000" data-fill-palette-color="accent"></rect><rect x="20.692" y="35.95" width="11.594" height="1.224" fill="#000000" data-fill-palette-color="accent"></rect><rect x="20.692" y="38.01" width="8.694" height="1.224" fill="#000000" data-fill-palette-color="accent"></rect><rect x="20.692" y="40.071" width="8.694" height="1.224" fill="#000000" data-fill-palette-color="accent"></rect><rect x="18.798" y="31.829" width="1.058" height="1.224" fill="#000000" data-fill-palette-color="accent"></rect><rect x="18.798" y="33.89" width="1.058" height="1.224" fill="#000000" data-fill-palette-color="accent"></rect><rect x="18.798" y="35.95" width="1.058" height="1.224" fill="#000000" data-fill-palette-color="accent"></rect><rect x="18.798" y="38.01" width="1.058" height="1.224" fill="#000000" data-fill-palette-color="accent"></rect><rect x="18.798" y="40.071" width="1.058" height="1.224" fill="#000000" data-fill-palette-color="accent"></rect><rect x="18.798" y="42.131" width="1.058" height="1.224" fill="#000000" data-fill-palette-color="accent"></rect><rect x="18.798" y="44.191" width="1.058" height="1.224" fill="#000000" data-fill-palette-color="accent"></rect><rect x="18.798" y="46.252" width="1.058" height="1.224" fill="#000000" data-fill-palette-color="accent"></rect><rect x="18.798" y="48.313" width="1.058" height="1.224" fill="#000000" data-fill-palette-color="accent"></rect><rect x="18.798" y="50.373" width="1.058" height="1.223" fill="#000000" data-fill-palette-color="accent"></rect><rect x="18.798" y="52.434" width="1.058" height="1.223" fill="#000000" data-fill-palette-color="accent"></rect><rect x="18.798" y="54.494" width="1.058" height="1.223" fill="#000000" data-fill-palette-color="accent"></rect><rect x="18.798" y="56.555" width="1.058" height="1.223" fill="#000000" data-fill-palette-color="accent"></rect><rect x="18.798" y="58.613" width="1.058" height="1.225" fill="#000000" data-fill-palette-color="accent"></rect><rect x="18.798" y="60.674" width="1.058" height="1.225" fill="#000000" data-fill-palette-color="accent"></rect><rect x="18.798" y="62.736" width="1.058" height="1.223" fill="#000000" data-fill-palette-color="accent"></rect></svg></g></svg></g></svg></g><defs></defs></svg><rect width="395.52" height="72.827823691672" fill="none" stroke="none" visibility="hidden"></rect></g></svg></g></svg>